<svg xmlns="http://www.w3.org/2000/svg" width="1920" height="1080" viewBox="0 0 1920 1080">
  <defs>
    <linearGradient id="fade" x1="0" y1="0" x2="0" y2="1">
      <stop offset="0" stop-color="#ffffff" stop-opacity="0.10"/>
      <stop offset="1" stop-color="#ffffff" stop-opacity="0.00"/>
    </linearGradient>
    <filter id="soft" x="-10%" y="-10%" width="120%" height="120%">
      <feGaussianBlur stdDeviation="0.8"/>
    </filter>
  </defs>
  <rect width="1920" height="1080" fill="transparent"/>
  <g filter="url(#soft)">
    <path d="M 0.0 218.3 C 67.2 216.7, 124.8 204.0, 192.0 202.4 C 259.2 197.2, 316.8 155.2, 384.0 150.0 C 451.2 142.8, 508.8 85.4, 576.0 78.2 C 643.2 71.5, 700.8 17.6, 768.0 10.9 C 835.2 6.8, 892.8 -25.7, 960.0 -29.8 C 1027.2 -29.8, 1084.8 -30.3, 1152.0 -30.3 C 1219.2 -26.3, 1276.8 5.5, 1344.0 9.5 C 1411.2 16.1, 1468.8 69.7, 1536.0 76.4 C 1603.2 83.6, 1660.8 141.1, 1728.0 148.3 C 1795.2 153.6, 1852.8 196.2, 1920.0 201.5" fill="none" stroke="#6ee7b7" stroke-width="21.53204985460294" stroke-linecap="round" opacity="0.06312832584882808"/><path d="M 0.0 276.3 C 67.2 276.7, 124.8 280.2, 192.0 280.7 C 259.2 283.2, 316.8 303.2, 384.0 305.7 C 451.2 309.4, 508.8 338.8, 576.0 342.5 C 643.2 346.1, 700.8 374.6, 768.0 378.2 C 835.2 380.4, 892.8 397.9, 960.0 400.1 C 1027.2 400.2, 1084.8 400.5, 1152.0 400.6 C 1219.2 398.5, 1276.8 381.5, 1344.0 379.4 C 1411.2 375.9, 1468.8 347.6, 1536.0 344.1 C 1603.2 340.4, 1660.8 310.7, 1728.0 307.0 C 1795.2 304.5, 1852.8 283.9, 1920.0 281.3" fill="none" stroke="#22c55e" stroke-width="16.71019869916982" stroke-linecap="round" opacity="0.051376015697089356"/><path d="M 0.0 707.0 C 67.2 706.9, 124.8 706.4, 192.0 706.3 C 259.2 704.9, 316.8 693.0, 384.0 691.5 C 451.2 689.0, 508.8 668.9, 576.0 666.4 C 643.2 663.6, 700.8 640.6, 768.0 637.7 C 835.2 635.2, 892.8 615.4, 960.0 612.9 C 1027.2 611.5, 1084.8 600.0, 1152.0 598.6 C 1219.2 598.6, 1276.8 598.5, 1344.0 598.5 C 1411.2 599.9, 1468.8 611.3, 1536.0 612.7 C 1603.2 615.2, 1660.8 634.9, 1728.0 637.4 C 1795.2 640.2, 1852.8 663.2, 1920.0 666.1" fill="none" stroke="#10b981" stroke-width="10.968160538142286" stroke-linecap="round" opacity="0.1074086600653211"/><path d="M 0.0 348.7 C 67.2 347.6, 124.8 338.2, 192.0 337.1 C 259.2 334.9, 316.8 317.5, 384.0 315.3 C 451.2 312.7, 508.8 291.4, 576.0 288.8 C 643.2 286.3, 700.8 266.5, 768.0 264.1 C 835.2 262.4, 892.8 248.9, 960.0 247.3 C 1027.2 246.8, 1084.8 243.0, 1152.0 242.5 C 1219.2 243.3, 1276.8 250.1, 1344.0 251.0 C 1411.2 252.9, 1468.8 268.6, 1536.0 270.6 C 1603.2 273.2, 1660.8 293.9, 1728.0 296.5 C 1795.2 299.1, 1852.8 319.7, 1920.0 322.3" fill="none" stroke="#ffffff" stroke-width="11.842099288781654" stroke-linecap="round" opacity="0.03716508268707956"/><path d="M 0.0 812.9 C 67.2 811.0, 124.8 795.9, 192.0 794.0 C 259.2 794.0, 316.8 794.0, 384.0 794.0 C 451.2 795.8, 508.8 810.9, 576.0 812.7 C 643.2 816.2, 700.8 844.1, 768.0 847.6 C 835.2 852.1, 892.8 888.7, 960.0 893.2 C 1027.2 898.2, 1084.8 937.9, 1152.0 942.9 C 1219.2 947.5, 1276.8 984.5, 1344.0 989.1 C 1411.2 992.7, 1468.8 1021.4, 1536.0 1025.0 C 1603.2 1027.0, 1660.8 1043.2, 1728.0 1045.2 C 1795.2 1045.4, 1852.8 1046.5, 1920.0 1046.7" fill="none" stroke="#ffffff" stroke-width="11.96486062003865" stroke-linecap="round" opacity="0.03753320804540537"/><path d="M 0.0 -45.6 C 67.2 -45.9, 124.8 -47.8, 192.0 -48.0 C 259.2 -44.8, 316.8 -19.2, 384.0 -16.0 C 451.2 -10.3, 508.8 35.5, 576.0 41.3 C 643.2 47.8, 700.8 100.6, 768.0 107.2 C 835.2 112.7, 892.8 157.2, 960.0 162.8 C 1027.2 165.7, 1084.8 189.1, 1152.0 192.1 C 1219.2 191.5, 1276.8 187.1, 1344.0 186.5 C 1411.2 182.6, 1468.8 151.7, 1536.0 147.8 C 1603.2 141.7, 1660.8 93.1, 1728.0 87.0 C 1795.2 80.5, 1852.8 28.3, 1920.0 21.8" fill="none" stroke="#22c55e" stroke-width="18.906583302078182" stroke-linecap="round" opacity="0.04191332603881913"/><path d="M 0.0 763.7 C 67.2 766.6, 124.8 789.7, 192.0 792.6 C 259.2 795.1, 316.8 814.7, 384.0 817.2 C 451.2 818.8, 508.8 832.0, 576.0 833.7 C 643.2 834.3, 700.8 839.0, 768.0 839.6 C 835.2 839.0, 892.8 834.5, 960.0 834.0 C 1027.2 832.4, 1084.8 819.4, 1152.0 817.8 C 1219.2 815.3, 1276.8 795.8, 1344.0 793.4 C 1411.2 790.5, 1468.8 767.4, 1536.0 764.6 C 1603.2 761.7, 1660.8 738.5, 1728.0 735.6 C 1795.2 733.2, 1852.8 713.5, 1920.0 711.0" fill="none" stroke="#22c55e" stroke-width="15.148862602696395" stroke-linecap="round" opacity="0.08077816850802735"/>
  </g>
  <g>
    <line x1="658.3" y1="604.6" x2="2845.9" y2="245.1" stroke="#6ee7b7" stroke-opacity="0.053" stroke-width="1.70"/><line x1="41.5" y1="552.9" x2="1777.0" y2="16.7" stroke="#6ee7b7" stroke-opacity="0.030" stroke-width="1.36"/><line x1="-175.1" y1="874.4" x2="1658.0" y2="743.8" stroke="#6ee7b7" stroke-opacity="0.079" stroke-width="2.16"/><line x1="1122.6" y1="664.8" x2="2132.5" y2="548.7" stroke="#6ee7b7" stroke-opacity="0.054" stroke-width="1.07"/><line x1="54.2" y1="261.3" x2="868.4" y2="-97.2" stroke="#6ee7b7" stroke-opacity="0.049" stroke-width="2.01"/><line x1="812.1" y1="691.5" x2="2347.7" y2="225.8" stroke="#6ee7b7" stroke-opacity="0.050" stroke-width="1.33"/><line x1="1914.6" y1="1075.3" x2="3973.2" y2="585.1" stroke="#6ee7b7" stroke-opacity="0.042" stroke-width="1.28"/><line x1="281.9" y1="75.8" x2="2227.0" y2="-248.4" stroke="#6ee7b7" stroke-opacity="0.072" stroke-width="1.46"/><line x1="1823.3" y1="915.1" x2="2592.2" y2="693.8" stroke="#6ee7b7" stroke-opacity="0.075" stroke-width="1.56"/><line x1="1874.7" y1="429.2" x2="2754.9" y2="-18.7" stroke="#6ee7b7" stroke-opacity="0.068" stroke-width="1.32"/><line x1="-183.2" y1="359.2" x2="2065.6" y2="-158.1" stroke="#6ee7b7" stroke-opacity="0.031" stroke-width="1.30"/><line x1="-151.2" y1="64.7" x2="1841.0" y2="-139.3" stroke="#6ee7b7" stroke-opacity="0.056" stroke-width="1.54"/><line x1="55.3" y1="790.4" x2="1024.5" y2="334.8" stroke="#6ee7b7" stroke-opacity="0.031" stroke-width="1.50"/><line x1="106.4" y1="291.4" x2="2365.8" y2="-250.5" stroke="#6ee7b7" stroke-opacity="0.042" stroke-width="2.06"/><line x1="101.5" y1="425.8" x2="2181.8" y2="-28.8" stroke="#6ee7b7" stroke-opacity="0.031" stroke-width="2.19"/><line x1="107.3" y1="278.9" x2="2062.2" y2="-6.7" stroke="#6ee7b7" stroke-opacity="0.041" stroke-width="1.09"/><line x1="-176.4" y1="629.4" x2="964.9" y2="196.7" stroke="#6ee7b7" stroke-opacity="0.045" stroke-width="1.54"/><line x1="1825.8" y1="522.4" x2="3476.4" y2="-53.5" stroke="#6ee7b7" stroke-opacity="0.035" stroke-width="1.18"/><line x1="1709.0" y1="883.2" x2="2860.2" y2="672.7" stroke="#6ee7b7" stroke-opacity="0.066" stroke-width="2.13"/><line x1="68.9" y1="1026.1" x2="2192.0" y2="592.2" stroke="#6ee7b7" stroke-opacity="0.048" stroke-width="1.12"/>
  </g>
  <rect width="1920" height="1080" fill="url(#fade)"/>
</svg>
