<svg width="500" height="500" viewBox="0 0 500 500" fill="none" xmlns="http://www.w3.org/2000/svg">
<g clip-path="url(#clip0_239_18)">
<g filter="url(#filter0_d_239_18)">
<path d="M465.68 19C415.997 92.3021 408.357 224.907 400.413 289.392C394.964 333.617 332.17 375.886 289.497 385.294L407.501 130.7L413.435 117.898H349.073C337.092 117.898 326.286 118.318 317.373 124.737C308.676 131.001 303.327 141.842 297.628 157.06C292.467 170.843 286.338 190.331 277.513 217.055C247.919 250.204 234.461 284.089 230.073 323.088C222.615 303.013 216.133 284.963 210.452 268.733C222.482 147.851 306.917 79.0105 465.68 19Z" fill="url(#paint0_radial_239_18)"/>
</g>
<g filter="url(#filter1_d_239_18)">
<path d="M399.325 126.91L235.205 481L70.998 126.91H121.223C170.494 126.91 148.808 137.319 235.205 362.16C321.648 137.319 299.777 126.91 349.074 126.91H399.325Z" fill="url(#paint1_radial_239_18)"/>
</g>
</g>
<defs>
<filter id="filter0_d_239_18" x="174.118" y="-13.5392" width="327.896" height="438.962" filterUnits="userSpaceOnUse" color-interpolation-filters="sRGB">
<feFlood flood-opacity="0" result="BackgroundImageFix"/>
<feColorMatrix in="SourceAlpha" type="matrix" values="0 0 0 0 0 0 0 0 0 0 0 0 0 0 0 0 0 0 127 0" result="hardAlpha"/>
<feOffset dy="3.79466"/>
<feGaussianBlur stdDeviation="18.1669"/>
<feComposite in2="hardAlpha" operator="out"/>
<feColorMatrix type="matrix" values="0 0 0 0 0.2 0 0 0 0 1 0 0 0 0 0.294118 0 0 0 0.33 0"/>
<feBlend mode="normal" in2="BackgroundImageFix" result="effect1_dropShadow_239_18"/>
<feBlend mode="normal" in="SourceGraphic" in2="effect1_dropShadow_239_18" result="shape"/>
</filter>
<filter id="filter1_d_239_18" x="35.7077" y="95.4141" width="398.908" height="424.671" filterUnits="userSpaceOnUse" color-interpolation-filters="sRGB">
<feFlood flood-opacity="0" result="BackgroundImageFix"/>
<feColorMatrix in="SourceAlpha" type="matrix" values="0 0 0 0 0 0 0 0 0 0 0 0 0 0 0 0 0 0 127 0" result="hardAlpha"/>
<feOffset dy="3.79466"/>
<feGaussianBlur stdDeviation="17.6452"/>
<feComposite in2="hardAlpha" operator="out"/>
<feColorMatrix type="matrix" values="0 0 0 0 0.2 0 0 0 0 1 0 0 0 0 0.294118 0 0 0 0.37 0"/>
<feBlend mode="normal" in2="BackgroundImageFix" result="effect1_dropShadow_239_18"/>
<feBlend mode="normal" in="SourceGraphic" in2="effect1_dropShadow_239_18" result="shape"/>
</filter>
<radialGradient id="paint0_radial_239_18" cx="0" cy="0" r="1" gradientTransform="matrix(-30.8316 218.667 -189.621 25.5209 267.371 261.858)" gradientUnits="userSpaceOnUse">
<stop stop-color="#6AE578"/>
<stop offset="1" stop-color="#33FF4B"/>
</radialGradient>
<radialGradient id="paint1_radial_239_18" cx="0" cy="0" r="1" gradientUnits="userSpaceOnUse" gradientTransform="translate(265.949 219.643) rotate(96.7279) scale(263.17 244.022)">
<stop stop-color="#6AE578"/>
<stop offset="1" stop-color="#33FF4B"/>
</radialGradient>
<clipPath id="clip0_239_18">
<rect width="500" height="500" fill="white"/>
</clipPath>
</defs>
</svg>
