<svg width="300" height="300" viewBox="0 0 300 300" fill="none" xmlns="http://www.w3.org/2000/svg">
<path d="M12.5 12.5H62.5L96 179.875C97.1431 185.63 100.274 190.8 104.844 194.479C109.415 198.158 115.134 200.112 121 200H242.5C248.366 200.112 254.085 198.158 258.656 194.479C263.226 190.8 266.357 185.63 267.5 179.875L287.5 75H75M125 262.5C125 269.404 119.404 275 112.5 275C105.596 275 100 269.404 100 262.5C100 255.596 105.596 250 112.5 250C119.404 250 125 255.596 125 262.5ZM262.5 262.5C262.5 269.404 256.904 275 250 275C243.096 275 237.5 269.404 237.5 262.5C237.5 255.596 243.096 250 250 250C256.904 250 262.5 255.596 262.5 262.5Z" stroke="white" stroke-width="25" stroke-linecap="round" stroke-linejoin="round"/>
</svg>
