<svg xmlns="http://www.w3.org/2000/svg" width="1200" height="675" viewBox="0 0 1200 675">
  <defs>
    <linearGradient id="bg" x1="0" y1="0" x2="1" y2="1">
      <stop offset="0" stop-color="#071312"/>
      <stop offset="1" stop-color="#050b0a"/>
    </linearGradient>
  </defs>
  <rect width="1200" height="675" fill="url(#bg)"/>
  <g opacity="0.9"><line x1="180.7" y1="367.4" x2="671.2" y2="419.3" stroke="rgba(52,211,153,0.119)" stroke-width="2.3" /><line x1="-178.9" y1="565.3" x2="239.6" y2="432.5" stroke="rgba(52,211,153,0.160)" stroke-width="3.9" /><line x1="1138.3" y1="321.5" x2="1803.7" y2="146.8" stroke="rgba(52,211,153,0.120)" stroke-width="5.5" /><line x1="637.1" y1="500.3" x2="1323.5" y2="282.4" stroke="rgba(52,211,153,0.133)" stroke-width="4.4" /><line x1="282.0" y1="20.9" x2="1094.6" y2="7.3" stroke="rgba(52,211,153,0.129)" stroke-width="5.5" /><line x1="942.6" y1="621.7" x2="1449.3" y2="772.2" stroke="rgba(52,211,153,0.099)" stroke-width="5.7" /><line x1="1206.2" y1="65.8" x2="1544.6" y2="-75.7" stroke="rgba(52,211,153,0.156)" stroke-width="3.7" /><line x1="802.6" y1="203.2" x2="1382.3" y2="146.1" stroke="rgba(52,211,153,0.089)" stroke-width="4.3" /><line x1="734.8" y1="610.3" x2="1428.1" y2="824.8" stroke="rgba(52,211,153,0.144)" stroke-width="6.0" /><line x1="874.0" y1="110.1" x2="1683.5" y2="342.4" stroke="rgba(52,211,153,0.150)" stroke-width="4.3" /><line x1="942.1" y1="142.5" x2="1732.7" y2="179.3" stroke="rgba(52,211,153,0.081)" stroke-width="2.3" /><line x1="1166.3" y1="668.1" x2="1473.8" y2="818.4" stroke="rgba(52,211,153,0.095)" stroke-width="2.6" /><line x1="270.2" y1="518.9" x2="1087.5" y2="291.0" stroke="rgba(52,211,153,0.118)" stroke-width="2.2" /><line x1="949.5" y1="223.4" x2="1772.1" y2="463.7" stroke="rgba(52,211,153,0.106)" stroke-width="6.0" /><line x1="295.5" y1="52.0" x2="935.3" y2="-182.4" stroke="rgba(52,211,153,0.072)" stroke-width="3.6" /><line x1="776.7" y1="105.4" x2="1054.3" y2="289.3" stroke="rgba(52,211,153,0.085)" stroke-width="5.8" /><line x1="1234.7" y1="255.0" x2="1783.9" y2="265.0" stroke="rgba(52,211,153,0.121)" stroke-width="4.4" /><line x1="694.8" y1="418.6" x2="1556.2" y2="422.1" stroke="rgba(52,211,153,0.097)" stroke-width="4.9" /></g>
  <rect x="40" y="40" width="1120" height="595" fill="none" stroke="rgba(110,231,183,0.25)" stroke-width="2"/>
  <text x="60" y="605" font-family="Unbounded, Arial" font-size="44" fill="rgba(235,245,245,0.85)">GALLERY 03</text>
</svg>
